# xmcd
#
# Track frame offsets:
#	150
#	17336
#	31280
#	45224
#	62352
#	76180
#	92667
#	111718
#	126042
#	138258
#
# Disc length: 1966 seconds
# Revision: 2
# Processed by: cddbd v1.5.2PL0 Copyright (c) Steve Scherf et al.
# Submitted via: dBpowerAMP V12.0
#
DISCID=6f07ac0a
DTITLE=Various Artist - Rockin' The Roadhouse Down
DYEAR=2002
DGENRE=Country
TTITLE0=Joe Diffie - Honky Tank Attitude
TTITLE1=Tracy Lawrence - If The World Had A Front Porch
TTITLE2=Mark Chesnutt - Bubba Shot The Jukebox
TTITLE3=Joe Diffie - Is It Cold In Here
TTITLE4=Tracy Lawrence - The Holes That He Dug
TTITLE5=Mark Chesnutt - Too Cold At Home
TTITLE6=Joe Diffie - John Deere Green (Live)
TTITLE7=Tracy Lawrence - She Loved The Devil Out Of Me
TTITLE8=Mark Chesnutt - It's A Little Too Late
TTITLE9=Mark Chesnutt, Joe Diffie and Tracy Lawrence - Rock The Roadhouse Down
EXTD=
EXTT0=
EXTT1=
EXTT2=
EXTT3=
EXTT4=
EXTT5=
EXTT6=
EXTT7=
EXTT8=
EXTT9=
PLAYORDER=
